<?xml version="1.0" encoding="UTF-8"?> <svg xmlns="http://www.w3.org/2000/svg" width="310" height="442" viewBox="0 0 310 442" fill="none"><path d="M90.961 87.846C89.7792 89.3454 88.2783 90.5805 86.5602 91.4487C90.4045 97.9511 92.4754 105.425 92.4754 113.053C92.4754 124.385 88.0628 135.038 80.0503 143.05C72.0378 151.063 61.3847 155.475 50.0533 155.475C38.722 155.475 28.0689 151.063 20.0564 143.05C12.0439 135.038 7.63125 124.385 7.63125 113.053C7.63125 101.722 12.0439 91.0689 20.0564 83.0564C28.0689 75.0439 38.722 70.6313 50.0533 70.6313C56.5276 70.6313 62.8121 72.0796 68.5366 74.8575C69.2623 73.0662 70.372 71.4711 71.7652 70.1746C65.0734 66.7757 57.6794 65 50.0533 65C37.2178 65 25.1506 69.9985 16.0744 79.0744C6.99849 88.1506 2 100.218 2 113.053C2 125.889 6.99849 137.956 16.0744 147.032C25.1506 156.108 37.2178 161.107 50.0533 161.107C62.8888 161.107 74.9561 156.108 84.0323 147.032C93.1082 137.956 98.1067 125.889 98.1067 113.053C98.1067 104.125 95.5999 95.3815 90.961 87.846Z" fill="#00AAE5"></path><path d="M50.0535 85.2268C39.5764 85.2268 30.223 91.0475 25.4823 99.9705C27.5106 100.038 29.423 100.568 31.118 101.459C35.0661 95.0019 42.1585 90.8581 50.0537 90.8581C62.2921 90.8581 72.2489 100.815 72.2489 113.053C72.2489 125.292 62.2919 135.248 50.0535 135.248C42.1532 135.248 35.0633 131.106 31.1167 124.648C29.4217 125.539 27.5093 126.069 25.481 126.136C30.22 135.061 39.5696 140.88 50.0535 140.88C65.397 140.88 77.8799 128.397 77.8799 113.053C77.8799 97.7098 65.397 85.2268 50.0535 85.2268Z" fill="#00AAE5"></path><path d="M50.0534 124.155C56.1845 124.155 61.1548 119.184 61.1548 113.053C61.1548 106.922 56.1845 101.952 50.0534 101.952C43.9222 101.952 38.9519 106.922 38.9519 113.053C38.9519 119.184 43.9222 124.155 50.0534 124.155Z" fill="#00AAE5"></path><path d="M25.0425 120.704C29.2677 120.704 32.693 117.279 32.693 113.053C32.693 108.828 29.2677 105.403 25.0425 105.403C20.8173 105.403 17.3921 108.828 17.3921 113.053C17.3921 117.279 20.8173 120.704 25.0425 120.704Z" fill="white"></path><path d="M80.6756 87.4072C84.9008 87.4072 88.326 83.982 88.326 79.7568C88.326 75.5316 84.9008 72.1064 80.6756 72.1064C76.4504 72.1064 73.0251 75.5316 73.0251 79.7568C73.0251 83.982 76.4504 87.4072 80.6756 87.4072Z" fill="white"></path><path d="M205.109 92.3204V109.434L217.942 100.877L205.109 92.3204Z" fill="#00AAE5"></path><path d="M173 64.7539V137H245.246V64.7539H173ZM197.082 124.43V77.3242L232.413 100.877L197.082 124.43Z" fill="white"></path><path d="M253.809 48.6992V137H310V48.6992H253.809ZM293.945 120.945H269.863V112.918H293.945V120.945ZM293.945 104.891H269.863V96.8633H293.945V104.891ZM293.945 88.8359H269.863V80.8086H293.945V88.8359ZM293.945 72.7812H269.863V64.7539H293.945V72.7812Z" fill="#00AAE5"></path><path d="M193.08 22.4319L201.096 30.4475L217.15 14.3928L245.246 42.4885V0H173V42.3571L193.08 22.4319Z" fill="#00AAE5"></path><path d="M217.15 25.744L201.096 41.7987L193.057 33.7596L173 53.6639V56.1915H245.246V53.8397L217.15 25.744Z" fill="#00AAE5"></path><path d="M310 40.1367H253.809V0H310V40.1367Z" fill="white"></path><path d="M120.166 291.992H159.88C164.411 291.992 168.084 288.318 168.084 283.787C168.084 279.256 164.411 275.583 159.88 275.583H120.166C115.635 275.583 111.962 279.256 111.962 283.787C111.962 288.318 115.635 291.992 120.166 291.992Z" fill="white"></path><path d="M184.493 316.605C184.493 312.074 180.82 308.401 176.289 308.401H103.757C99.2259 308.401 95.5525 312.074 95.5525 316.605C95.5525 321.136 99.2259 324.81 103.757 324.81H176.288C180.82 324.81 184.493 321.136 184.493 316.605Z" fill="white"></path><path d="M168.084 349.423C168.084 344.892 164.411 341.219 159.88 341.219H120.166C115.635 341.219 111.962 344.892 111.962 349.423C111.962 353.954 115.635 357.628 120.166 357.628H159.88C164.411 357.628 168.084 353.954 168.084 349.423Z" fill="white"></path><path d="M132.327 238.628L132.326 193.305C104.883 195.079 79.1609 205.734 58.501 223.885L90.5716 255.955C102.559 246.182 116.971 240.202 132.327 238.628Z" fill="#00AAE5"></path><path d="M219.42 325.72C217.57 343.778 209.628 360.533 196.588 373.572C181.594 388.567 161.685 396.826 140.532 396.826C140.531 396.826 140.532 396.826 140.531 396.826C121.615 396.826 104.227 390.164 90.581 379.07L58.5027 411.148C81.2099 431.098 110.031 442 140.532 442C173.783 442 205.044 429.051 228.556 405.539C250.123 383.972 262.794 355.883 264.744 325.72H219.42V325.72Z" fill="#00AAE5"></path><path d="M239.901 218.146C217.881 196.125 188.816 181.892 158.061 178.068C155.657 177.765 153.333 178.484 151.522 180.085C149.725 181.672 148.735 183.867 148.735 186.264V238.628C185.926 242.469 215.578 272.12 219.419 309.311L271.782 309.312C274.18 309.312 276.375 308.322 277.962 306.525C279.562 304.714 280.278 302.392 279.979 299.986C279.979 299.986 279.979 299.986 279.979 299.986C276.155 269.231 261.922 240.166 239.901 218.146Z" fill="white"></path><path d="M78.9433 367.501C67.462 353.408 61.2211 335.943 61.2211 317.517C61.2206 299.116 67.4702 281.657 78.9662 267.554L41.9253 230.513C40.3468 228.935 38.2886 228.084 36.081 228.084C35.9032 228.084 35.7255 228.089 35.5455 228.1C33.1695 228.247 31.0604 229.355 29.6066 231.222C10.2381 256.081 0 285.921 0 317.516C0 349.111 10.2381 378.951 29.6071 403.81C31.061 405.677 33.1706 406.785 35.5461 406.932C37.9522 407.08 40.2199 406.224 41.9253 404.519L78.9433 367.501Z" fill="#00AAE5"></path></svg> 